<?xml version="1.0" standalone="no"?>
<!DOCTYPE svg PUBLIC "-//W3C//DTD SVG 20010904//EN"
 "http://www.w3.org/TR/2001/REC-SVG-20010904/DTD/svg10.dtd">
<svg version="1.0" xmlns="http://www.w3.org/2000/svg"
 width="580.000000pt" height="387.000000pt" viewBox="0 0 580.000000 387.000000"
 preserveAspectRatio="xMidYMid meet">

<g transform="translate(0.000000,387.000000) scale(0.100000,-0.100000)"  stroke="none">
<path d="M0 1935 l0 -1935 2900 0 2900 0 0 1935 0 1935 -2900 0 -2900 0 0
-1935z m3435 627 c-3 -3 -11 0 -18 7 -9 10 -8 11 6 5 10 -3 15 -9 12 -12z m54
-14 c8 3 11 0 7 -6 -3 -6 3 -12 16 -14 l23 -3 3 -263 c1 -145 -1 -262 -6 -260
-38 15 -395 235 -399 245 -3 7 -9 11 -13 8 -4 -3 -10 2 -14 10 -3 8 -20 24
-38 36 -30 19 -31 20 -8 16 14 -2 34 -8 45 -13 18 -7 18 -6 6 9 -7 9 -27 17
-44 17 -21 0 -28 3 -21 10 8 8 19 8 38 0 15 -5 33 -7 39 -3 12 8 18 9 38 12 5
0 7 5 4 11 -3 6 1 7 9 4 9 -3 16 -2 16 4 0 5 11 8 25 7 14 -2 23 2 22 8 -1 7
3 11 10 10 7 -2 10 4 7 12 -4 10 6 17 35 25 23 6 46 8 51 5 6 -3 10 1 10 10 0
9 5 13 10 10 6 -3 10 -2 10 2 0 11 60 36 82 34 28 -3 31 18 4 31 -27 11 -36
30 -13 26 6 -2 11 4 9 12 -2 13 0 12 10 -1 7 -9 19 -14 27 -11z m-409 -268
c13 -11 19 -20 14 -20 -13 1 -61 40 -48 40 6 0 21 -9 34 -20z m-285 -240 c3
-6 -1 -7 -9 -4 -18 7 -21 14 -7 14 6 0 13 -4 16 -10z m-130 -30 c-3 -5 -14
-10 -23 -9 -14 0 -13 2 3 9 27 11 27 11 20 0z m77 -22 c13 3 19 1 15 -5 -10
-16 21 -25 44 -13 17 10 79 5 204 -17 17 -2 45 -6 63 -8 18 -2 38 -7 45 -13
11 -8 35 -15 117 -29 14 -3 39 -5 55 -5 17 -1 24 -3 18 -5 -7 -3 -13 -9 -13
-14 0 -6 5 -7 10 -4 6 3 10 4 10 2 0 -11 -73 -47 -82 -41 -6 4 -8 3 -5 -2 3
-5 -23 -25 -59 -44 -35 -19 -64 -38 -64 -42 0 -3 96 -62 214 -130 l214 -123
-142 -77 c-77 -42 -148 -81 -156 -86 -11 -7 27 -58 179 -241 106 -128 191
-234 189 -236 -3 -3 -817 480 -831 494 -5 5 27 27 70 49 130 68 128 60 27 120
-48 29 -91 52 -95 52 -5 0 -31 14 -59 30 -28 17 -53 30 -55 30 -5 0 -75 45
-91 59 -6 5 -37 24 -68 41 -67 38 -72 44 -43 57 74 35 117 59 117 66 0 5 -10
6 -22 2 -20 -5 -21 -4 -5 5 9 6 22 8 27 5 6 -4 33 5 60 19 27 14 56 26 64 26
13 0 28 48 22 72 -1 7 -1 10 1 7 2 -4 13 -4 25 -1z m608 -82 c0 -2 -8 -10 -17
-17 -16 -13 -17 -12 -4 4 13 16 21 21 21 13z m-1114 -256 c8 0 13 -3 11 -7 -3
-5 5 -9 16 -9 44 -3 73 -10 111 -27 21 -9 42 -14 47 -11 5 3 9 0 9 -6 0 -7 8
-9 21 -5 16 5 19 4 14 -5 -6 -10 -1 -11 21 -7 16 3 40 -1 54 -8 14 -7 36 -18
50 -24 19 -8 20 -10 3 -6 -12 3 -24 2 -27 -3 -3 -5 10 -7 29 -5 19 2 51 4 70
6 19 2 35 2 35 1 0 -9 -82 -44 -91 -39 -5 4 -8 2 -7 -4 2 -6 -93 -65 -209
-130 l-213 -120 0 187 c0 191 5 245 21 220 6 -9 9 -6 10 12 1 17 3 19 6 8 2
-10 11 -18 19 -18z"/>
<path d="M3470 2525 c14 -8 30 -14 35 -14 6 0 -1 6 -15 14 -14 8 -29 14 -35
14 -5 0 1 -6 15 -14z"/>
<path d="M2720 1939 c0 -5 9 -9 20 -9 11 0 20 2 20 4 0 2 -9 6 -20 9 -11 3
-20 1 -20 -4z"/>
<path d="M2636 1521 c-4 -5 3 -7 14 -4 23 6 26 13 6 13 -8 0 -17 -4 -20 -9z"/>
</g>
</svg>
